<svg width="34" height="30" fill="none" xmlns="http://www.w3.org/2000/svg"><g clip-path="url(#a)"><path d="M33.165 3.53a12 12 0 0 1-3.802 1.217c1.36-.935 2.411-2.418 2.906-4.2A12.413 12.413 0 0 1 28.065 2.4C26.845.882 25.13 0 23.182 0c-3.632 0-6.6 3.388-6.6 7.57 0 .6.062 1.183.17 1.73-5.501-.318-10.4-3.335-13.661-7.906a8.317 8.317 0 0 0-.897 3.794c0 2.63 1.16 4.96 2.952 6.283-1.097 0-2.117-.353-3.013-.883v.053c0 3.67 2.287 6.741 5.316 7.43a5.737 5.737 0 0 1-2.983.123c.42 1.505 1.242 2.82 2.351 3.764s2.449 1.466 3.831 1.495C8.305 25.57 5.4 26.716 2.411 26.7c-.526 0-1.051-.035-1.577-.106C3.771 28.747 7.264 30 11.004 30c12.178 0 18.87-11.541 18.87-21.547 0-.335 0-.653-.016-.988 1.298-1.06 2.411-2.4 3.307-3.936Z" fill="#fff"/></g><defs><clipPath id="a"><path fill="#fff" d="M0 0h34v30H0z"/></clipPath></defs></svg>